<?xml version="1.0" encoding="UTF-8"?><svg id="uuid-9f039e68-6b98-43e1-9f17-f09cde1b77ad" xmlns="http://www.w3.org/2000/svg" width="175" height="175" viewBox="0 0 175 175"><defs><style>.uuid-a6742c41-a427-43de-bc2e-b163eb8c33ff{fill:none;}.uuid-d8435829-9dba-4ac8-896e-1bcf23acda26{fill:#e0e0e0;}.uuid-acb6f9ad-fab5-4e9f-9d5c-da7512f9afd8{fill:#fff;}.uuid-c4d1bbf0-6dfd-4211-bfcb-bb38b56ed74a{fill:#63993d;}.uuid-ef85c11f-b673-4ff0-a612-f0db0622cea2{fill:#87bb62;}.uuid-2dc5f78c-8e80-4156-8617-c99edbeddc8c{fill:#e00;}</style></defs><g id="uuid-3f04d3d9-1c27-4da6-ae75-1f9aa33ca35d"><g id="uuid-da38815a-020a-4708-bed7-3bda0bcfec4b"><rect class="uuid-c4d1bbf0-6dfd-4211-bfcb-bb38b56ed74a" x="122.5" y="122.5" width="50" height="50" rx="12.5" ry="12.5"/><path class="uuid-ef85c11f-b673-4ff0-a612-f0db0622cea2" d="M160,123.5c6.34113,0,11.5,5.15888,11.5,11.5v25c0,6.34113-5.15887,11.5-11.5,11.5h-25c-6.34112,0-11.5-5.15887-11.5-11.5v-25c0-6.34112,5.15888-11.5,11.5-11.5h25M160,122.5h-25c-6.90356,0-12.5,5.59644-12.5,12.5v25c0,6.90356,5.59644,12.5,12.5,12.5h25c6.90356,0,12.5-5.59644,12.5-12.5v-25c0-6.90356-5.59644-12.5-12.5-12.5h0Z"/></g><g id="uuid-f039edac-873d-4ac0-8221-e5fbb7ba0063"><g id="uuid-0117ea0a-577f-4e22-bb9b-6b4160276746"><g id="uuid-4e9552fb-eaa1-42a1-ac08-124fbf5442dd"><rect class="uuid-a6742c41-a427-43de-bc2e-b163eb8c33ff" x="131.5" y="131.5" width="32" height="32"/></g><g id="uuid-6a05fd39-98e3-454f-96fd-fd57fbfe27d0"><path class="uuid-acb6f9ad-fab5-4e9f-9d5c-da7512f9afd8" d="M142.7,158.3672c-.61408,0-1.22976-.2328-1.6968-.7016l-7.4344-7.4344c-.62496-.62496-.62496-1.63744,0-2.26256s1.63744-.62496,2.26256,0l6.8688,6.8688,16.4688-16.4688c.62496-.62496,1.63744-.62496,2.26256,0,.62512.62496.62496,1.63744,0,2.26256l-17.0344,17.0344c-.4672.4688-1.08288.7016-1.6968.7016h-.00032Z"/></g></g></g></g><g id="uuid-c08babdc-111c-4221-85c8-90c8e21a7d59"><path class="uuid-acb6f9ad-fab5-4e9f-9d5c-da7512f9afd8" d="M117.5,135c0-9.64954,7.85046-17.5,17.5-17.5h17.40784c.0545-.82721.09216-1.659.09216-2.5V40c0-20.71069-16.78931-37.5-37.5-37.5H40C19.28931,2.5,2.5,19.28931,2.5,40v75c0,20.71063,16.78931,37.5,37.5,37.5h75c.841,0,1.67279-.03766,2.5-.09216v-17.40784Z"/><path class="uuid-d8435829-9dba-4ac8-896e-1bcf23acda26" d="M117.5,147.18536c-.82605.0636-1.6579.10626-2.5.10626H40c-17.80573,0-32.29169-14.48596-32.29169-32.29163V40C7.70831,22.19434,22.19427,7.70831,40,7.70831h75c17.80573,0,32.29169,14.48602,32.29169,32.29169v75c0,.8421-.04266,1.67395-.10626,2.5h5.22241c.0545-.82721.09216-1.659.09216-2.5V40c0-20.71075-16.78925-37.5-37.5-37.5H40C19.28925,2.5,2.5,19.28925,2.5,40v75c0,20.71069,16.78925,37.5,37.5,37.5h75c.841,0,1.67279-.03766,2.5-.09216v-5.22247Z"/></g><g id="uuid-b584108d-6227-400e-b197-b13065ec7f08"><rect class="uuid-a6742c41-a427-43de-bc2e-b163eb8c33ff" width="175" height="175"/><path class="uuid-2dc5f78c-8e80-4156-8617-c99edbeddc8c" d="M106.66691,109.27173h-58.33332c-1.05387,0-2.00195-.63477-2.40682-1.60726-.40283-.97249-.17904-2.09351.56559-2.83813l27.32544-27.32544-27.32544-27.32544c-.74463-.74463-.96842-1.86564-.56559-2.83813.40487-.97249,1.35295-1.60726,2.40682-1.60726h58.33332c1.05387,0,2.00195.63477,2.40682,1.60726.40283.97249.17904,2.09351-.56559,2.83813l-27.32544,27.32544,27.32544,27.32544c.74463.74463.96842,1.86564.56559,2.83813-.40487.97249-1.35295,1.60726-2.40682,1.60726ZM54.6202,104.0634h45.76008l-22.88004-22.88004-22.88004,22.88004ZM54.6202,50.93841l22.88004,22.88004,22.88004-22.88004h-45.76008Z"/><path class="uuid-2dc5f78c-8e80-4156-8617-c99edbeddc8c" d="M106.66691,80.10507h-58.33332c-1.43839,0-2.60417-1.16577-2.60417-2.60417s1.16577-2.60417,2.60417-2.60417h58.33332c1.43839,0,2.60417,1.16577,2.60417,2.60417s-1.16577,2.60417-2.60417,2.60417Z"/><rect class="uuid-acb6f9ad-fab5-4e9f-9d5c-da7512f9afd8" x="102.5" y="102.49998" width="12.5" height="12.5"/><path d="M115.00024,117.60506h-12.5c-1.43839,0-2.60417-1.16577-2.60417-2.60417v-12.5c0-1.43839,1.16577-2.60417,2.60417-2.60417h12.5c1.43839,0,2.60417,1.16577,2.60417,2.60417v12.5c0,1.43839-1.16577,2.60417-2.60417,2.60417ZM105.10441,112.39673h7.29167v-7.29167h-7.29167v7.29167Z"/><rect class="uuid-acb6f9ad-fab5-4e9f-9d5c-da7512f9afd8" x="40.00001" y="102.49998" width="12.5" height="12.5"/><path d="M52.50025,117.60506h-12.5c-1.43839,0-2.60417-1.16577-2.60417-2.60417v-12.5c0-1.43839,1.16577-2.60417,2.60417-2.60417h12.5c1.43839,0,2.60417,1.16577,2.60417,2.60417v12.5c0,1.43839-1.16577,2.60417-2.60417,2.60417ZM42.60441,112.39673h7.29167v-7.29167h-7.29167v7.29167Z"/><rect class="uuid-acb6f9ad-fab5-4e9f-9d5c-da7512f9afd8" x="102.5" y="39.99999" width="12.5" height="12.5"/><path d="M115.00024,55.10507h-12.5c-1.43839,0-2.60417-1.16577-2.60417-2.60417v-12.5c0-1.43839,1.16577-2.60417,2.60417-2.60417h12.5c1.43839,0,2.60417,1.16577,2.60417,2.60417v12.5c0,1.43839-1.16577,2.60417-2.60417,2.60417ZM105.10441,49.89674h7.29167v-7.29167h-7.29167v7.29167Z"/><rect class="uuid-acb6f9ad-fab5-4e9f-9d5c-da7512f9afd8" x="40.00001" y="39.99999" width="12.5" height="12.5"/><path d="M52.50025,55.10507h-12.5c-1.43839,0-2.60417-1.16577-2.60417-2.60417v-12.5c0-1.43839,1.16577-2.60417,2.60417-2.60417h12.5c1.43839,0,2.60417,1.16577,2.60417,2.60417v12.5c0,1.43839-1.16577,2.60417-2.60417,2.60417ZM42.60441,49.89674h7.29167v-7.29167h-7.29167v7.29167Z"/><rect class="uuid-acb6f9ad-fab5-4e9f-9d5c-da7512f9afd8" x="40.00001" y="71.24999" width="12.5" height="12.5"/><path d="M52.50025,86.35507h-12.5c-1.43839,0-2.60417-1.16577-2.60417-2.60417v-12.5c0-1.43839,1.16577-2.60417,2.60417-2.60417h12.5c1.43839,0,2.60417,1.16577,2.60417,2.60417v12.5c0,1.43839-1.16577,2.60417-2.60417,2.60417ZM42.60441,81.14673h7.29167v-7.29167h-7.29167v7.29167Z"/><rect class="uuid-acb6f9ad-fab5-4e9f-9d5c-da7512f9afd8" x="102.5" y="71.24999" width="12.5" height="12.5"/><path d="M115.00024,86.35507h-12.5c-1.43839,0-2.60417-1.16577-2.60417-2.60417v-12.5c0-1.43839,1.16577-2.60417,2.60417-2.60417h12.5c1.43839,0,2.60417,1.16577,2.60417,2.60417v12.5c0,1.43839-1.16577,2.60417-2.60417,2.60417ZM105.10441,81.14673h7.29167v-7.29167h-7.29167v7.29167Z"/><rect class="uuid-acb6f9ad-fab5-4e9f-9d5c-da7512f9afd8" x="71.25001" y="71.24999" width="12.5" height="12.5"/><path d="M83.75024,86.35507h-12.5c-1.43839,0-2.60417-1.16577-2.60417-2.60417v-12.5c0-1.43839,1.16577-2.60417,2.60417-2.60417h12.5c1.43839,0,2.60417,1.16577,2.60417,2.60417v12.5c0,1.43839-1.16577,2.60417-2.60417,2.60417ZM73.85441,81.14673h7.29167v-7.29167h-7.29167v7.29167Z"/></g></svg>